<?xml version="1.0" encoding="UTF-8"?>
<svg xmlns="http://www.w3.org/2000/svg" xmlns:xlink="http://www.w3.org/1999/xlink" width="810pt" height="809.999993pt" viewBox="0 0 810 809.999993" version="1.2">
<defs>
<clipPath id="clip1">
  <path d="M 81.441406 200 L 308 200 L 308 592 L 81.441406 592 Z M 81.441406 200 "/>
</clipPath>
<clipPath id="clip2">
  <path d="M 720.742188 335.796875 L 412.375 335.796875 L 412.375 463.699219 L 589.875 463.699219 C 573.328125 544.953125 504.132812 591.597656 412.375 591.597656 C 304.066406 591.597656 216.820312 504.324219 216.820312 395.984375 C 216.820312 287.648438 304.066406 200.375 412.375 200.375 C 459.003906 200.375 501.125 216.925781 534.21875 244.011719 L 630.488281 147.710938 C 571.824219 96.550781 496.609375 64.953125 412.375 64.953125 C 228.855469 64.953125 81.441406 212.414062 81.441406 395.984375 C 81.441406 579.558594 228.855469 727.019531 412.375 727.019531 C 577.839844 727.019531 728.265625 606.644531 728.265625 395.984375 C 728.265625 376.425781 725.253906 355.359375 720.742188 335.796875 Z M 720.742188 335.796875 "/>
</clipPath>
<clipPath id="clip3">
  <path d="M 81.441406 64 L 728.265625 64 L 728.265625 396 L 81.441406 396 Z M 81.441406 64 "/>
</clipPath>
<clipPath id="clip4">
  <path d="M 720.742188 335.796875 L 412.375 335.796875 L 412.375 463.699219 L 589.875 463.699219 C 573.328125 544.953125 504.132812 591.597656 412.375 591.597656 C 304.066406 591.597656 216.820312 504.324219 216.820312 395.984375 C 216.820312 287.648438 304.066406 200.375 412.375 200.375 C 459.003906 200.375 501.125 216.925781 534.21875 244.011719 L 630.488281 147.710938 C 571.824219 96.550781 496.609375 64.953125 412.375 64.953125 C 228.855469 64.953125 81.441406 212.414062 81.441406 395.984375 C 81.441406 579.558594 228.855469 727.019531 412.375 727.019531 C 577.839844 727.019531 728.265625 606.644531 728.265625 395.984375 C 728.265625 376.425781 725.253906 355.359375 720.742188 335.796875 Z M 720.742188 335.796875 "/>
</clipPath>
<clipPath id="clip5">
  <path d="M 81.441406 64 L 728.265625 64 L 728.265625 727.019531 L 81.441406 727.019531 Z M 81.441406 64 "/>
</clipPath>
<clipPath id="clip6">
  <path d="M 720.742188 335.796875 L 412.375 335.796875 L 412.375 463.699219 L 589.875 463.699219 C 573.328125 544.953125 504.132812 591.597656 412.375 591.597656 C 304.066406 591.597656 216.820312 504.324219 216.820312 395.984375 C 216.820312 287.648438 304.066406 200.375 412.375 200.375 C 459.003906 200.375 501.125 216.925781 534.21875 244.011719 L 630.488281 147.710938 C 571.824219 96.550781 496.609375 64.953125 412.375 64.953125 C 228.855469 64.953125 81.441406 212.414062 81.441406 395.984375 C 81.441406 579.558594 228.855469 727.019531 412.375 727.019531 C 577.839844 727.019531 728.265625 606.644531 728.265625 395.984375 C 728.265625 376.425781 725.253906 355.359375 720.742188 335.796875 Z M 720.742188 335.796875 "/>
</clipPath>
<clipPath id="clip7">
  <path d="M 246 200 L 728.265625 200 L 728.265625 727.019531 L 246 727.019531 Z M 246 200 "/>
</clipPath>
<clipPath id="clip8">
  <path d="M 720.742188 335.796875 L 412.375 335.796875 L 412.375 463.699219 L 589.875 463.699219 C 573.328125 544.953125 504.132812 591.597656 412.375 591.597656 C 304.066406 591.597656 216.820312 504.324219 216.820312 395.984375 C 216.820312 287.648438 304.066406 200.375 412.375 200.375 C 459.003906 200.375 501.125 216.925781 534.21875 244.011719 L 630.488281 147.710938 C 571.824219 96.550781 496.609375 64.953125 412.375 64.953125 C 228.855469 64.953125 81.441406 212.414062 81.441406 395.984375 C 81.441406 579.558594 228.855469 727.019531 412.375 727.019531 C 577.839844 727.019531 728.265625 606.644531 728.265625 395.984375 C 728.265625 376.425781 725.253906 355.359375 720.742188 335.796875 Z M 720.742188 335.796875 "/>
</clipPath>
</defs>
<g id="surface1">
<g clip-path="url(#clip1)" clip-rule="nonzero">
<g clip-path="url(#clip2)" clip-rule="nonzero">
<path style=" stroke:none;fill-rule:nonzero;fill:rgb(98.429871%,73.728943%,1.959229%);fill-opacity:1;" d="M 51.355469 591.597656 L 51.355469 200.375 L 307.078125 395.984375 Z M 51.355469 591.597656 "/>
</g>
</g>
<g clip-path="url(#clip3)" clip-rule="nonzero">
<g clip-path="url(#clip4)" clip-rule="nonzero">
<path style=" stroke:none;fill-rule:nonzero;fill:rgb(91.758728%,26.269531%,20.779419%);fill-opacity:1;" d="M 51.355469 200.375 L 307.078125 395.984375 L 412.375 304.199219 L 773.390625 245.515625 L 773.390625 34.859375 L 51.355469 34.859375 Z M 51.355469 200.375 "/>
</g>
</g>
<g clip-path="url(#clip5)" clip-rule="nonzero">
<g clip-path="url(#clip6)" clip-rule="nonzero">
<path style=" stroke:none;fill-rule:nonzero;fill:rgb(20.388794%,65.879822%,32.548523%);fill-opacity:1;" d="M 51.355469 591.597656 L 502.628906 245.515625 L 621.464844 260.5625 L 773.390625 34.859375 L 773.390625 757.113281 L 51.355469 757.113281 Z M 51.355469 591.597656 "/>
</g>
</g>
<g clip-path="url(#clip7)" clip-rule="nonzero">
<g clip-path="url(#clip8)" clip-rule="nonzero">
<path style=" stroke:none;fill-rule:nonzero;fill:rgb(25.878906%,52.159119%,95.689392%);fill-opacity:1;" d="M 773.390625 757.113281 L 307.078125 395.984375 L 246.90625 350.84375 L 773.390625 200.375 Z M 773.390625 757.113281 "/>
</g>
</g>
</g>
</svg>
