<?xml version="1.0" encoding="UTF-8"?><svg xmlns="http://www.w3.org/2000/svg" xmlns:xlink="http://www.w3.org/1999/xlink" width="810" zoomAndPan="magnify" viewBox="0 0 810 809.999993" height="809.999993" preserveAspectRatio="xMidYMid meet" version="1.0"><path fill="rgb(94.119263%, 38.42926%, 57.249451%)" d="M 697.996094 442.789062 C 669.695312 442.933594 645.179688 449.726562 624.644531 459.863281 C 617.136719 444.867188 609.515625 431.675781 608.246094 421.867188 C 606.753906 410.425781 605.027344 403.578125 606.828125 389.945312 C 608.632812 376.3125 616.527344 356.992188 616.417969 355.539062 C 616.308594 354.085938 614.652344 347.148438 598.328125 347.019531 C 582.003906 346.910156 568.035156 350.167969 566.398438 354.472656 C 564.761719 358.777344 561.613281 368.472656 559.664062 378.59375 C 556.808594 393.386719 527.070312 446.171875 510.195312 473.773438 C 504.675781 462.992188 499.980469 453.496094 499.007812 445.988281 C 497.515625 434.546875 495.785156 427.699219 497.589844 414.066406 C 499.394531 400.433594 507.289062 381.113281 507.175781 379.660156 C 507.066406 378.207031 505.410156 371.269531 489.085938 371.140625 C 472.765625 371.03125 458.796875 374.289062 457.15625 378.59375 C 455.519531 382.898438 453.753906 392.964844 450.421875 402.714844 C 447.074219 412.449219 407.5625 500.488281 397.203125 523.320312 C 391.917969 534.949219 387.335938 544.296875 384.097656 550.664062 C 384.082031 550.644531 384.082031 550.625 384.082031 550.625 C 384.082031 550.625 383.878906 551.050781 383.546875 551.765625 C 380.769531 557.195312 379.128906 560.195312 379.128906 560.195312 C 379.128906 560.195312 379.148438 560.230469 379.183594 560.304688 C 376.976562 564.296875 374.621094 567.996094 373.460938 567.996094 C 372.652344 567.996094 371.015625 557.378906 373.8125 542.804688 C 379.699219 512.265625 393.816406 464.648438 393.6875 462.992188 C 393.613281 462.144531 396.316406 453.847656 384.464844 449.503906 C 372.945312 445.289062 368.84375 452.320312 367.792969 452.335938 C 366.78125 452.355469 366.027344 454.820312 366.027344 454.820312 C 366.027344 454.820312 378.855469 401.261719 341.550781 401.261719 C 318.214844 401.261719 285.902344 426.78125 269.980469 449.910156 C 259.933594 455.390625 238.421875 467.128906 215.621094 479.660156 C 206.859375 484.480469 197.914062 489.394531 189.433594 494.066406 C 188.863281 493.421875 188.273438 492.796875 187.683594 492.152344 C 142.429688 443.890625 58.808594 409.761719 62.339844 344.867188 C 63.628906 321.28125 71.835938 259.164062 223.054688 183.835938 C 346.925781 122.125 446.097656 139.109375 463.230469 176.734375 C 487.707031 230.515625 410.230469 330.441406 281.59375 344.867188 C 232.585938 350.367188 206.769531 331.363281 200.34375 324.296875 C 193.589844 316.84375 192.578125 316.515625 190.058594 317.914062 C 185.953125 320.195312 188.550781 326.761719 190.058594 330.683594 C 193.902344 340.671875 209.65625 358.390625 236.523438 367.222656 C 260.171875 374.988281 317.71875 379.238281 387.300781 352.320312 C 465.253906 322.179688 526.113281 238.316406 508.226562 168.234375 C 490.042969 96.957031 371.824219 73.515625 259.933594 113.257812 C 193.261719 136.917969 121.175781 174.050781 69.335938 222.511719 C 7.703125 280.140625 -2.125 330.3125 1.925781 351.269531 C 16.316406 425.75 118.984375 474.25 160.097656 510.183594 C 158.074219 511.308594 156.160156 512.355469 154.429688 513.3125 C 133.820312 523.503906 55.550781 564.460938 35.96875 607.71875 C 13.757812 656.789062 39.503906 692.007812 56.542969 696.753906 C 109.34375 711.433594 163.519531 685.015625 192.652344 641.59375 C 221.765625 598.1875 218.214844 541.648438 204.855469 515.851562 C 204.6875 515.539062 204.503906 515.226562 204.339844 514.894531 C 209.65625 511.75 215.085938 508.546875 220.460938 505.382812 C 230.949219 499.21875 241.253906 493.476562 250.179688 488.621094 C 245.175781 502.308594 241.511719 518.742188 239.617188 542.457031 C 237.371094 570.3125 248.800781 606.320312 263.742188 620.488281 C 270.332031 626.726562 278.246094 626.871094 283.25 626.871094 C 300.640625 626.871094 308.574219 612.410156 317.3125 595.300781 C 328.023438 574.324219 337.539062 549.890625 337.539062 549.890625 C 337.539062 549.890625 325.613281 615.871094 358.113281 615.871094 C 369.964844 615.871094 381.871094 600.507812 387.191406 592.6875 C 387.207031 592.777344 387.207031 592.816406 387.207031 592.816406 C 387.207031 592.816406 387.523438 592.300781 388.128906 591.289062 C 389.363281 589.410156 390.0625 588.214844 390.0625 588.214844 C 390.0625 588.214844 390.078125 588.085938 390.117188 587.867188 C 394.882812 579.605469 405.445312 560.765625 421.273438 529.6875 C 441.738281 489.539062 461.355469 439.238281 461.355469 439.238281 C 461.355469 439.238281 463.175781 451.527344 469.15625 471.878906 C 472.671875 483.835938 480.144531 497.066406 486.050781 509.761719 C 481.304688 516.347656 478.394531 520.121094 478.394531 520.121094 C 478.394531 520.121094 478.414062 520.195312 478.46875 520.324219 C 474.679688 525.363281 470.425781 530.792969 465.972656 536.089844 C 449.816406 555.316406 430.585938 577.285156 428.007812 583.617188 C 424.972656 591.085938 425.6875 596.570312 431.558594 601.003906 C 435.847656 604.222656 443.464844 604.738281 451.433594 604.203125 C 465.953125 603.230469 476.148438 599.625 481.191406 597.433594 C 489.050781 594.65625 498.195312 590.292969 506.773438 583.984375 C 522.617188 572.335938 532.167969 555.6875 531.25 533.605469 C 530.734375 521.445312 526.867188 509.394531 521.953125 498.023438 C 523.390625 495.960938 524.824219 493.863281 526.28125 491.765625 C 551.253906 455.261719 570.628906 415.152344 570.628906 415.152344 C 570.628906 415.152344 572.453125 427.441406 578.433594 447.792969 C 581.453125 458.078125 587.433594 469.320312 592.804688 480.324219 C 569.324219 499.402344 554.765625 521.574219 549.707031 536.109375 C 540.359375 563.007812 547.683594 575.1875 561.410156 577.96875 C 567.632812 579.21875 576.425781 576.367188 583.035156 573.570312 C 591.261719 570.847656 601.144531 566.300781 610.382812 559.511719 C 626.226562 547.867188 641.464844 531.566406 640.542969 509.503906 C 640.121094 499.457031 637.398438 489.484375 633.699219 479.917969 C 653.609375 471.621094 679.375 467.019531 712.203125 470.847656 C 782.632812 479.070312 796.433594 523.027344 793.804688 541.425781 C 791.152344 559.824219 776.394531 569.945312 771.445312 573 C 766.511719 576.054688 765.003906 577.121094 765.40625 579.382812 C 766.015625 582.675781 768.296875 582.566406 772.511719 581.851562 C 778.308594 580.875 809.480469 566.890625 810.824219 532.925781 C 812.5 489.761719 771.1875 442.402344 697.996094 442.789062 Z M 155.164062 625.75 C 131.832031 651.195312 99.257812 660.800781 85.273438 652.707031 C 70.179688 643.964844 76.164062 606.503906 104.777344 579.496094 C 122.226562 563.046875 144.75 547.882812 159.691406 538.554688 C 163.097656 536.515625 168.085938 533.515625 174.15625 529.871094 C 175.171875 529.300781 175.742188 528.988281 175.742188 528.988281 L 175.722656 528.953125 C 176.898438 528.253906 178.097656 527.535156 179.328125 526.78125 C 189.761719 565.21875 179.660156 599.054688 155.164062 625.75 Z M 325.117188 510.257812 C 317 530.054688 299.996094 580.726562 289.636719 578.003906 C 280.746094 575.667969 275.335938 537.15625 287.871094 499.253906 C 294.164062 480.175781 307.632812 457.378906 315.546875 448.527344 C 328.28125 434.289062 342.304688 429.632812 345.710938 435.410156 C 350.035156 442.769531 330.214844 497.839844 325.117188 510.257812 Z M 465.511719 577.230469 C 462.070312 579.035156 458.90625 580.15625 457.453125 579.292969 C 456.367188 578.648438 458.871094 576.273438 458.871094 576.273438 C 458.871094 576.273438 476.425781 557.378906 483.34375 548.785156 C 487.375 543.78125 492.03125 537.839844 497.109375 531.214844 C 497.148438 531.878906 497.167969 532.539062 497.167969 533.183594 C 497.128906 555.816406 475.265625 571.085938 465.511719 577.230469 Z M 573.667969 552.578125 C 571.089844 550.753906 571.53125 544.847656 579.980469 526.429688 C 583.292969 519.199219 590.875 507.039062 604.011719 495.410156 C 605.539062 500.195312 606.460938 504.773438 606.441406 509.042969 C 606.277344 537.527344 585.960938 548.160156 573.667969 552.578125 Z M 573.667969 552.578125 " fill-opacity="1" fill-rule="nonzero"/></svg>