<?xml version="1.0" encoding="UTF-8"?>
<svg xmlns="http://www.w3.org/2000/svg" xmlns:xlink="http://www.w3.org/1999/xlink" width="810pt" height="809.999993pt" viewBox="0 0 810 809.999993" version="1.2">
<defs>
<clipPath id="clip1">
  <path d="M 81 40 L 731 40 L 731 771.144531 L 81 771.144531 Z M 81 40 "/>
</clipPath>
</defs>
<g id="surface1">
<g clip-path="url(#clip1)" clip-rule="nonzero">
<path style=" stroke:none;fill-rule:nonzero;fill:rgb(32.548523%,61.959839%,26.269531%);fill-opacity:1;" d="M 406.105469 771.042969 C 396.027344 771.042969 386.632812 768.359375 377.925781 763.675781 L 288.671875 710.667969 C 275.25 703.300781 281.960938 700.617188 285.988281 699.277344 C 304.105469 693.226562 307.460938 691.882812 326.25 681.152344 C 328.265625 679.808594 330.949219 680.492188 332.960938 681.835938 L 401.398438 722.742188 C 404.082031 724.085938 407.449219 724.085938 409.476562 722.742188 L 677.207031 567.792969 C 679.890625 566.453125 681.234375 563.769531 681.234375 560.402344 L 681.234375 251.136719 C 681.234375 247.785156 679.890625 245.101562 677.207031 243.757812 L 409.476562 89.460938 C 406.792969 88.117188 403.421875 88.117188 401.398438 89.460938 L 133.667969 243.757812 C 130.972656 245.101562 129.628906 248.453125 129.628906 251.136719 L 129.628906 560.402344 C 129.628906 563.085938 130.972656 566.453125 133.65625 567.796875 L 206.800781 610.046875 C 246.394531 630.171875 271.222656 606.703125 271.222656 583.210938 L 271.222656 277.972656 C 271.222656 273.949219 274.578125 269.925781 279.277344 269.925781 L 313.5 269.925781 C 317.527344 269.925781 321.554688 273.277344 321.554688 277.972656 L 321.554688 583.214844 C 321.554688 636.222656 292.695312 667.082031 242.367188 667.082031 C 226.933594 667.082031 214.855469 667.082031 180.632812 650.296875 L 110.167969 610.046875 C 92.722656 600 81.984375 581.214844 81.984375 561.089844 L 81.984375 251.824219 C 81.984375 231.6875 92.722656 212.902344 110.167969 202.839844 L 377.921875 47.875 C 394.6875 38.480469 417.527344 38.480469 434.289062 47.875 L 702.046875 202.839844 C 719.496094 212.902344 730.230469 231.6875 730.230469 251.8125 L 730.230469 561.078125 C 730.230469 581.203125 719.496094 599.988281 702.046875 610.035156 L 434.289062 765.011719 C 425.578125 769.035156 415.5 771.035156 406.105469 771.035156 Z M 488.65625 558.402344 C 371.214844 558.402344 347.054688 504.710938 347.054688 459.09375 C 347.054688 455.066406 350.398438 451.042969 355.109375 451.042969 L 390.003906 451.042969 C 394.027344 451.042969 397.371094 453.726562 397.371094 457.75 C 402.738281 493.316406 418.1875 510.761719 489.316406 510.761719 C 545.683594 510.761719 569.839844 498 569.839844 467.828125 C 569.839844 450.386719 563.128906 437.625 475.238281 428.917969 C 402.082031 421.527344 356.449219 405.425781 356.449219 347.078125 C 356.449219 292.730469 402.082031 260.53125 478.578125 260.53125 C 564.472656 260.53125 606.761719 290.046875 612.128906 354.445312 C 612.128906 356.46875 611.445312 358.46875 610.101562 360.492188 C 608.761719 361.835938 606.761719 363.175781 604.734375 363.175781 L 569.839844 363.175781 C 566.496094 363.175781 563.128906 360.492188 562.472656 357.128906 C 554.417969 320.242188 533.605469 308.167969 478.578125 308.167969 C 416.84375 308.167969 409.476562 329.636719 409.476562 345.734375 C 409.476562 365.175781 418.1875 371.226562 501.394531 381.960938 C 583.945312 392.695312 622.863281 408.109375 622.863281 465.800781 C 622.179688 524.835938 573.867188 558.402344 488.65625 558.402344 Z M 488.65625 558.402344 "/>
</g>
</g>
</svg>
